<?xml version="1.0" encoding="UTF-8"?>
<svg version="1.1" xmlns="http://www.w3.org/2000/svg" width="226" height="113">
<path d="M0 0 C74.58 0 149.16 0 226 0 C226 37.29 226 74.58 226 113 C151.42 113 76.84 113 0 113 C0 75.71 0 38.42 0 0 Z " fill="#025861" transform="translate(0,0)"/>
<path d="M0 0 C1.15886719 -0.00128906 2.31773438 -0.00257812 3.51171875 -0.00390625 C5.32736328 0.00189453 5.32736328 0.00189453 7.1796875 0.0078125 C8.39785156 0.00394531 9.61601563 0.00007813 10.87109375 -0.00390625 C12.60552734 -0.00197266 12.60552734 -0.00197266 14.375 0 C15.43992676 0.00112793 16.50485352 0.00225586 17.60205078 0.00341797 C20.0546875 0.1328125 20.0546875 0.1328125 21.0546875 1.1328125 C21.14216957 3.05948757 21.16166084 4.98933111 21.15234375 6.91796875 C21.14912109 8.08779297 21.14589844 9.25761719 21.14257812 10.46289062 C21.13000977 12.31043945 21.13000977 12.31043945 21.1171875 14.1953125 C21.11267578 15.43087891 21.10816406 16.66644531 21.10351562 17.93945312 C21.09168358 21.00395367 21.07519923 24.06835971 21.0546875 27.1328125 C22.20395016 26.17859442 23.34899291 25.21929205 24.4921875 24.2578125 C25.44931641 23.45730469 25.44931641 23.45730469 26.42578125 22.640625 C28.16273754 21.2105368 28.16273754 21.2105368 29.0546875 19.1328125 C30.0446875 19.1328125 31.0346875 19.1328125 32.0546875 19.1328125 C36.97119006 29.29504769 38.14484348 41.41405735 34.8046875 52.3203125 C31.84448106 59.41389476 27.63138153 64.1893651 21.0546875 68.1328125 C17.50705037 69.40417602 13.92093084 69.33453839 10.1796875 69.3828125 C8.98601562 69.40859375 7.79234375 69.434375 6.5625 69.4609375 C2.74151171 69.10351766 0.4245279 67.88013715 -2.9453125 66.1328125 C-6.70962163 67.38758221 -6.99575358 68.82703868 -8.9453125 72.1328125 C-9.6053125 72.1328125 -10.2653125 72.1328125 -10.9453125 72.1328125 C-10.9453125 73.1228125 -10.9453125 74.1128125 -10.9453125 75.1328125 C-12.4303125 74.6378125 -12.4303125 74.6378125 -13.9453125 74.1328125 C-13.47306806 66.65832287 -12.38039397 62.17081526 -6.6328125 57.0703125 C1.71939414 50.26997724 9.37452778 47.10373611 20.0546875 46.1328125 C20.0546875 45.1428125 20.0546875 44.1528125 20.0546875 43.1328125 C14.90727102 44.1622958 9.88503693 45.39798565 4.8671875 46.9453125 C3.42279297 47.38810547 3.42279297 47.38810547 1.94921875 47.83984375 C-1.13703376 48.99995492 -1.13703376 48.99995492 -3.4765625 51.77734375 C-7.37830995 55.21506535 -11.72587597 54.50944569 -16.66601562 54.265625 C-17.85130859 54.18054688 -19.03660156 54.09546875 -20.2578125 54.0078125 C-21.46244141 53.9459375 -22.66707031 53.8840625 -23.90820312 53.8203125 C-32.75689256 53.32123244 -32.75689256 53.32123244 -33.9453125 52.1328125 C-34.04524782 50.0722594 -34.07612156 48.0082866 -34.078125 45.9453125 C-34.07941406 44.68976563 -34.08070312 43.43421875 -34.08203125 42.140625 C-34.07993652 41.48352539 -34.0778418 40.82642578 -34.07568359 40.14941406 C-34.07033484 38.14119915 -34.07562941 36.13320791 -34.08203125 34.125 C-34.08074219 32.86945312 -34.07945313 31.61390625 -34.078125 30.3203125 C-34.07643311 28.57814453 -34.07643311 28.57814453 -34.07470703 26.80078125 C-33.9453125 24.1328125 -33.9453125 24.1328125 -32.9453125 23.1328125 C-31.16460004 23.04555027 -29.3804811 23.02582209 -27.59765625 23.03515625 C-26.51806641 23.03837891 -25.43847656 23.04160156 -24.32617188 23.04492188 C-22.62170898 23.05749023 -22.62170898 23.05749023 -20.8828125 23.0703125 C-19.17254883 23.07708008 -19.17254883 23.07708008 -17.42773438 23.08398438 C-14.60023832 23.0958149 -11.77276905 23.113751 -8.9453125 23.1328125 C-8.9453125 15.8728125 -8.9453125 8.6128125 -8.9453125 1.1328125 C-5.727246 0.06012367 -3.38237336 0.00357491 0 0 Z " fill="#04AAB0" transform="translate(64.9453125,22.8671875)"/>
<path d="M0 0 C0.99 0 1.98 0 3 0 C7.91650256 10.16223519 9.09015598 22.28124485 5.75 33.1875 C2.78979356 40.28108226 -1.42330597 45.0565526 -8 49 C-11.54763713 50.27136352 -15.13375666 50.20172589 -18.875 50.25 C-20.66550781 50.28867188 -20.66550781 50.28867188 -22.4921875 50.328125 C-26.31317579 49.97070516 -28.6301596 48.74732465 -32 47 C-35.76430913 48.25476971 -36.05044108 49.69422618 -38 53 C-38.66 53 -39.32 53 -40 53 C-40 53.99 -40 54.98 -40 56 C-40.99 55.67 -41.98 55.34 -43 55 C-42.52775556 47.52551037 -41.43508147 43.03800276 -35.6875 37.9375 C-27.33529336 31.13716474 -19.68015972 27.97092361 -9 27 C-9 26.01 -9 25.02 -9 24 C-18.99522008 25.99904402 -28.37313062 27.95981288 -36 35 C-36.99 35 -37.98 35 -39 35 C-39.14285714 26.42857143 -39.14285714 26.42857143 -38 23 C-37.34 23 -36.68 23 -36 23 C-35.773125 22.236875 -35.54625 21.47375 -35.3125 20.6875 C-33.71052866 17.40727297 -32.27374 16.51709902 -29 15 C-28.01 15 -27.02 15 -26 15 C-26 14.34 -26 13.68 -26 13 C-21.23692563 12.04738513 -16.8333472 11.91666643 -12 12 C-12 11.34 -12 10.68 -12 10 C-10.576875 9.87625 -10.576875 9.87625 -9.125 9.75 C-5.95248093 9.36963607 -5.95248093 9.36963607 -4.875 7.25 C-4.58625 6.5075 -4.2975 5.765 -4 5 C-2.0625 2.25 -2.0625 2.25 0 0 Z " fill="#F5FDFC" transform="translate(94,42)"/>
<path d="M0 0 C10.9 0 10.9 0 15 2 C16.375 4.125 16.375 4.125 17 6 C17.99 5.34 18.98 4.68 20 4 C24.21274963 3.76595835 27.88965401 4.1779308 32 5 C32.66 4.67 33.32 4.34 34 4 C35.70702735 3.93003986 37.41668003 3.91559846 39.125 3.9375 C40.03507812 3.94652344 40.94515625 3.95554688 41.8828125 3.96484375 C42.93082031 3.98224609 42.93082031 3.98224609 44 4 C44.33 3.01 44.66 2.02 45 1 C47.31 1 49.62 1 52 1 C52.495 2.485 52.495 2.485 53 4 C53.74765625 4 54.4953125 4 55.265625 4 C59.51041667 4 63.75520833 4 68 4 C69.40761479 3.9674511 70.81516831 3.93216801 72.22265625 3.89453125 C73.83592984 3.86673901 75.44921145 3.8394095 77.0625 3.8125 C78.28549805 3.77479492 78.28549805 3.77479492 79.53320312 3.73632812 C80.31759766 3.72666016 81.10199219 3.71699219 81.91015625 3.70703125 C82.62308838 3.6913208 83.33602051 3.67561035 84.07055664 3.65942383 C86.58973997 4.1040981 87.45560208 4.99724355 89 7 C89.3984375 9.62890625 89.3984375 9.62890625 89.375 12.5625 C89.38660156 14.01849609 89.38660156 14.01849609 89.3984375 15.50390625 C89.26695312 16.32761719 89.13546875 17.15132812 89 18 C84.93150591 20.71232939 82.83523216 20.30699887 78 20 C76 18 76 18 75.8046875 15.8359375 C75.82789063 15.02382812 75.85109375 14.21171875 75.875 13.375 C75.89304687 12.55773438 75.91109375 11.74046875 75.9296875 10.8984375 C75.95289063 10.27195312 75.97609375 9.64546875 76 9 C75.01 9 74.02 9 73 9 C73 12.63 73 16.26 73 20 C71.35 20 69.7 20 68 20 C68 19.34 68 18.68 68 18 C67.27103516 18.48919922 67.27103516 18.48919922 66.52734375 18.98828125 C62.91146343 20.43575111 59.39388958 20.24966601 55.5625 20.1875 C54.81162109 20.18685547 54.06074219 20.18621094 53.28710938 20.18554688 C49.37428086 20.15457462 45.84009406 19.80649374 42 19 C41.505 19.495 41.505 19.495 41 20 C34.47457627 20.23728814 34.47457627 20.23728814 32 19 C32 18.34 32 17.68 32 17 C31.01 17 30.02 17 29 17 C29 17.66 29 18.32 29 19 C25.98131566 20.50934217 23.32702771 20.17510672 20 20 C19.01 19.34 18.02 18.68 17 18 C17 17.34 17 16.68 17 16 C16.566875 16.474375 16.13375 16.94875 15.6875 17.4375 C11.47931737 21.3339654 5.33187577 20.06272795 0 20 C0 13.4 0 6.8 0 0 Z " fill="#E7EEEF" transform="translate(116,51)"/>
<path d="M0 0 C4 0 8 0 12 0 C13.40761479 -0.0325489 14.81516831 -0.06783199 16.22265625 -0.10546875 C17.83592984 -0.13326099 19.44921145 -0.1605905 21.0625 -0.1875 C21.87783203 -0.21263672 22.69316406 -0.23777344 23.53320312 -0.26367188 C24.31759766 -0.27333984 25.10199219 -0.28300781 25.91015625 -0.29296875 C26.62308838 -0.3086792 27.33602051 -0.32438965 28.07055664 -0.34057617 C30.58973997 0.1040981 31.45560208 0.99724355 33 3 C33.3984375 5.62890625 33.3984375 5.62890625 33.375 8.5625 C33.38660156 10.01849609 33.38660156 10.01849609 33.3984375 11.50390625 C33.26695312 12.32761719 33.13546875 13.15132812 33 14 C28.93150591 16.71232939 26.83523216 16.30699887 22 16 C20 14 20 14 19.8046875 11.8359375 C19.82789063 11.02382812 19.85109375 10.21171875 19.875 9.375 C19.89304688 8.55773438 19.91109375 7.74046875 19.9296875 6.8984375 C19.95289063 6.27195312 19.97609375 5.64546875 20 5 C19.01 5 18.02 5 17 5 C17 8.63 17 12.26 17 16 C15.35 16 13.7 16 12 16 C12 15.34 12 14.68 12 14 C11.505 14.33 11.01 14.66 10.5 15 C6.79357588 16.48256965 3.98894311 16.32168896 0 16 C-2.07324138 12.89013793 -2.27392186 12.10891613 -2.25 8.5625 C-2.25515625 7.80066406 -2.2603125 7.03882813 -2.265625 6.25390625 C-1.9747292 3.78556982 -1.22975656 2.142314 0 0 Z " fill="#F2F6F6" transform="translate(172,55)"/>
<path d="M0 0 C5.75 1.875 5.75 1.875 8 3 C10.26910971 3.09778166 12.54128942 3.12975646 14.8125 3.125 C16.03582031 3.12757812 17.25914063 3.13015625 18.51953125 3.1328125 C21.49017156 3.01945473 24.1189481 2.69145246 27 2 C26.74438677 4.3431213 26.40729228 6.67843403 26 9 C23.19004092 10.40497954 20.88825528 10.07637899 17.75 10.02734375 C15.87828125 10.00897461 15.87828125 10.00897461 13.96875 9.99023438 C11.32286189 9.9550774 8.67702279 9.91601464 6.03125 9.87304688 C4.15953125 9.85661133 4.15953125 9.85661133 2.25 9.83984375 C1.10015625 9.82300537 -0.0496875 9.80616699 -1.234375 9.78881836 C-4.14315531 9.70901084 -4.14315531 9.70901084 -6 12 C-8.625 12.125 -8.625 12.125 -11 12 C-11.28571429 4.57142857 -11.28571429 4.57142857 -9 1 C-7.64560332 3.70879335 -7.93498549 6.00933268 -8 9 C-7.34 9.33 -6.68 9.66 -6 10 C-6 9.01 -6 8.02 -6 7 C-5.34 7 -4.68 7 -4 7 C-3.71125 6.21625 -3.4225 5.4325 -3.125 4.625 C-2 2 -2 2 0 0 Z " fill="#14A1A3" transform="translate(60,88)"/>
<path d="M0 0 C1.32 0.66 2.64 1.32 4 2 C2.02 2.33 0.04 2.66 -2 3 C-2 3.66 -2 4.32 -2 5 C-6.62 5.33 -11.24 5.66 -16 6 C-16 6.66 -16 7.32 -16 8 C-17.093125 8.391875 -18.18625 8.78375 -19.3125 9.1875 C-22.95122954 10.71341884 -24.18699952 12.46942012 -26 16 C-26.66 16 -27.32 16 -28 16 C-28.33 19.63 -28.66 23.26 -29 27 C-34.61 26.67 -40.22 26.34 -46 26 C-46 25.67 -46 25.34 -46 25 C-39.565 24.505 -39.565 24.505 -33 24 C-32.443125 22.68 -31.88625 21.36 -31.3125 20 C-25.24146624 6.61421377 -25.24146624 6.61421377 -17.75390625 3.73828125 C-13.17871964 2.51174186 -8.54361667 1.93180233 -3.84375 1.39453125 C-1.104883 1.3059589 -1.104883 1.3059589 0 0 Z " fill="#21A5AA" transform="translate(84,49)"/>
<path d="M0 0 C1.15886719 -0.00128906 2.31773438 -0.00257812 3.51171875 -0.00390625 C5.32736328 0.00189453 5.32736328 0.00189453 7.1796875 0.0078125 C8.39785156 0.00394531 9.61601563 0.00007813 10.87109375 -0.00390625 C12.60552734 -0.00197266 12.60552734 -0.00197266 14.375 0 C15.43992676 0.00112793 16.50485352 0.00225586 17.60205078 0.00341797 C20.0546875 0.1328125 20.0546875 0.1328125 21.0546875 1.1328125 C21.33529466 5.27176808 21.28648744 9.42297473 21.3046875 13.5703125 C21.3253125 14.74142578 21.3459375 15.91253906 21.3671875 17.11914062 C21.37234375 18.23611328 21.3775 19.35308594 21.3828125 20.50390625 C21.39683105 22.0496936 21.39683105 22.0496936 21.41113281 23.62670898 C21.23469238 24.86723022 21.23469238 24.86723022 21.0546875 26.1328125 C17.61018013 28.42915074 15.11656467 28.67297735 11.0546875 29.1328125 C12.55732573 26.12753603 14.97121591 26.16063636 18.0546875 25.1328125 C19.30717252 22.62784246 19.16843156 20.92427976 19.15234375 18.125 C19.14750977 16.64580078 19.14750977 16.64580078 19.14257812 15.13671875 C19.13419922 14.10417969 19.12582031 13.07164063 19.1171875 12.0078125 C19.11267578 10.96753906 19.10816406 9.92726563 19.10351562 8.85546875 C19.09170702 6.28119288 19.07523825 3.70703104 19.0546875 1.1328125 C15.63705966 1.21382227 12.22119902 1.32665253 8.8046875 1.4453125 C7.83660156 1.46787109 6.86851563 1.49042969 5.87109375 1.51367188 C4.46923828 1.5668457 4.46923828 1.5668457 3.0390625 1.62109375 C2.18022461 1.64727783 1.32138672 1.67346191 0.43652344 1.70043945 C-2.45668851 2.22564224 -3.8592144 3.07273887 -5.9453125 5.1328125 C-6.35040898 7.93032658 -6.55051349 10.39622803 -6.5703125 13.1953125 C-6.70571984 20.89321984 -6.70571984 20.89321984 -8.9453125 23.1328125 C-8.9453125 15.8728125 -8.9453125 8.6128125 -8.9453125 1.1328125 C-5.727246 0.06012367 -3.38237336 0.00357491 0 0 Z " fill="#0F9CA1" transform="translate(64.9453125,22.8671875)"/>
<path d="M0 0 C0 0.99 0 1.98 0 3 C-1.29093133 3.43966502 -2.58280836 3.87655299 -3.875 4.3125 C-5.10476562 4.72822266 -5.10476562 4.72822266 -6.359375 5.15234375 C-8.08623784 5.70667694 -9.82637175 6.22161788 -11.578125 6.69140625 C-18.83221678 8.63844009 -23.71801598 11.57611193 -29 17 C-29.33 15.02 -29.66 13.04 -30 11 C-28.33984375 10.05598958 -26.6796875 9.11197917 -25.01953125 8.16796875 C-23.53801058 7.31115118 -22.07845716 6.41605206 -20.6328125 5.5 C-17.82911687 3.90264225 -15.11948482 2.83936363 -12.0625 1.8125 C-11.06347656 1.46832031 -10.06445312 1.12414062 -9.03515625 0.76953125 C-5.90062172 -0.02519629 -3.21941739 -0.13914024 0 0 Z " fill="#56ACAE" transform="translate(85,66)"/>
<path d="M0 0 C5.75 1.875 5.75 1.875 8 3 C10.71760108 3.07181821 13.40859388 3.09299506 16.125 3.0625 C17.25615234 3.05573242 17.25615234 3.05573242 18.41015625 3.04882812 C20.27347127 3.03703499 22.13674555 3.01909942 24 3 C23 5 23 5 21.4375 5.625 C15.07542618 6.60378059 8.7678208 5.84653524 2.41796875 5.12109375 C-0.14359301 4.8460403 -0.14359301 4.8460403 -3 6 C-3.59070014 7.94603274 -3.59070014 7.94603274 -4 10 C-6 12 -6 12 -8.625 12.125 C-9.40875 12.08375 -10.1925 12.0425 -11 12 C-11.28571429 4.57142857 -11.28571429 4.57142857 -9 1 C-7.64560332 3.70879335 -7.93498549 6.00933268 -8 9 C-7.34 9.33 -6.68 9.66 -6 10 C-6 9.01 -6 8.02 -6 7 C-5.34 7 -4.68 7 -4 7 C-3.71125 6.21625 -3.4225 5.4325 -3.125 4.625 C-2 2 -2 2 0 0 Z " fill="#63BFC0" transform="translate(60,88)"/>
<path d="M0 0 C1.00023193 0.00523682 2.00046387 0.01047363 3.03100586 0.01586914 C4.1105957 0.0190918 5.19018555 0.02231445 6.30249023 0.02563477 C8.00695312 0.03820313 8.00695312 0.03820313 9.74584961 0.05102539 C11.45611328 0.05779297 11.45611328 0.05779297 13.20092773 0.06469727 C16.02845312 0.07652792 18.85587601 0.09301129 21.68334961 0.11352539 C21.68334961 0.44352539 21.68334961 0.77352539 21.68334961 1.11352539 C14.66529104 2.21439732 7.77769194 2.21085631 0.68334961 2.11352539 C-1.25374677 5.37106463 -1.55380484 7.76962467 -1.51196289 11.53540039 C-1.50229492 13.07260742 -1.50229492 13.07260742 -1.49243164 14.64086914 C-1.47567383 15.7043457 -1.45891602 16.76782227 -1.44165039 17.86352539 C-1.43262695 18.9424707 -1.42360352 20.02141602 -1.41430664 21.13305664 C-1.39076459 23.79330789 -1.35489436 26.45344488 -1.31665039 29.11352539 C5.61334961 29.11352539 12.54334961 29.11352539 19.68334961 29.11352539 C19.68334961 29.44352539 19.68334961 29.77352539 19.68334961 30.11352539 C16.03753274 30.14240051 12.39174498 30.16028124 8.74584961 30.17602539 C7.18447266 30.18859375 7.18447266 30.18859375 5.59155273 30.20141602 C4.60219727 30.20463867 3.6128418 30.20786133 2.59350586 30.21118164 C1.21884155 30.21903687 1.21884155 30.21903687 -0.18359375 30.22705078 C-2.31665039 30.11352539 -2.31665039 30.11352539 -3.31665039 29.11352539 C-3.41658571 27.05297229 -3.44745945 24.98899949 -3.44946289 22.92602539 C-3.45075195 21.67047852 -3.45204102 20.41493164 -3.45336914 19.12133789 C-3.45127441 18.46423828 -3.44917969 17.80713867 -3.44702148 17.13012695 C-3.44167273 15.12191204 -3.4469673 13.1139208 -3.45336914 11.10571289 C-3.45208008 9.85016602 -3.45079102 8.59461914 -3.44946289 7.30102539 C-3.447771 5.55885742 -3.447771 5.55885742 -3.44604492 3.78149414 C-3.27041791 0.16026392 -3.27041791 0.16026392 0 0 Z " fill="#1599A0" transform="translate(34.316650390625,45.886474609375)"/>
<path d="M0 0 C0.33 0.66 0.66 1.32 1 2 C0.67 2.66 0.34 3.32 0 4 C-0.99 4 -1.98 4 -3 4 C-3.28875 4.886875 -3.5775 5.77375 -3.875 6.6875 C-4.83148748 9.50382424 -5.86798946 12.25083156 -7 15 C-6.01 15 -5.02 15 -4 15 C-4 14.34 -4 13.68 -4 13 C-2.35 13 -0.7 13 1 13 C1 12.34 1 11.68 1 11 C2.32 11.66 3.64 12.32 5 13 C3.948125 13.4125 2.89625 13.825 1.8125 14.25 C-1.60131925 15.69139035 -4.11459351 17.67564477 -7 20 C-7.99 20 -8.98 20 -10 20 C-10.14285714 11.42857143 -10.14285714 11.42857143 -9 8 C-8.34 8 -7.68 8 -7 8 C-6.773125 7.236875 -6.54625 6.47375 -6.3125 5.6875 C-4.73268318 2.45263699 -3.16717283 1.58358642 0 0 Z " fill="#B8EEEF" transform="translate(65,57)"/>
<path d="M0 0 C4.1117256 -0.02465746 8.22342278 -0.04283959 12.33520508 -0.05493164 C13.73495228 -0.0599708 15.1346942 -0.06680216 16.53442383 -0.07543945 C18.54245777 -0.0875232 20.55052957 -0.09269807 22.55859375 -0.09765625 C24.37315063 -0.10551147 24.37315063 -0.10551147 26.22436523 -0.11352539 C29 0 29 0 30 1 C30.15806531 2.92478813 30.251135 4.8549921 30.31640625 6.78515625 C30.35830078 7.95498047 30.40019531 9.12480469 30.44335938 10.33007812 C30.48267578 11.56177734 30.52199219 12.79347656 30.5625 14.0625 C30.60568359 15.29806641 30.64886719 16.53363281 30.69335938 17.80664062 C30.79984198 20.87097335 30.90185424 23.93539073 31 27 C30.01 27.33 29.02 27.66 28 28 C27.505 15.13 27.505 15.13 27 2 C17.76 2 8.52 2 -1 2 C-0.67 1.34 -0.34 0.68 0 0 Z " fill="#07767F" transform="translate(58,22)"/>
<path d="M0 0 C3.8515625 0.8046875 3.8515625 0.8046875 5.1875 2.5625 C8.32461519 11.97384558 7.99040248 22.02159442 4 31 C2.64400027 27.01544695 3.01279158 23.01540013 3.125 18.875 C3.23473212 12.11275829 2.61139014 6.3264035 0 0 Z " fill="#437D7F" transform="translate(97,43)"/>
<path d="M0 0 C1.32 0 2.64 0 4 0 C4 0.99 4 1.98 4 3 C4.99 3.33 5.98 3.66 7 4 C7 4.66 7 5.32 7 6 C6.01 6 5.02 6 4 6 C4.144375 7.258125 4.28875 8.51625 4.4375 9.8125 C4.55931641 10.87404297 4.55931641 10.87404297 4.68359375 11.95703125 C4.97170735 14.19396393 4.97170735 14.19396393 6 17 C4.02 16.67 2.04 16.34 0 16 C0 12.7 0 9.4 0 6 C-0.66 5.67 -1.32 5.34 -2 5 C-1.34 3.35 -0.68 1.7 0 0 Z " fill="#FBFCFC" transform="translate(162,53)"/>
<path d="M0 0 C2.31 0 4.62 0 7 0 C7.33 0.99 7.66 1.98 8 3 C8.99 3.66 9.98 4.32 11 5 C10.67 5.66 10.34 6.32 10 7 C9.90500497 8.49756871 9.87012802 9.99942932 9.875 11.5 C9.87242187 12.2940625 9.86984375 13.088125 9.8671875 13.90625 C9.86722004 16.05918534 9.86722004 16.05918534 11 18 C7.95016004 19.52491998 5.3576631 19.23562548 2 19 C0.0625 17.5 0.0625 17.5 -1 16 C1.64 16.66 4.28 17.32 7 18 C6.34 17.01 5.68 16.02 5 15 C4.74239721 12.30547479 4.91099947 9.71451625 5 7 C5.99 7 6.98 7 8 7 C7.505 6.566875 7.01 6.13375 6.5 5.6875 C5 4 5 4 5 1 C3.68 1 2.36 1 1 1 C0.67 1.66 0.34 2.32 0 3 C0 2.01 0 1.02 0 0 Z " fill="#ABC4C6" transform="translate(161,52)"/>
<path d="M0 0 C0.33 0 0.66 0 1 0 C1 7.26 1 14.52 1 22 C-11.375 22.495 -11.375 22.495 -24 23 C-24 22.34 -24 21.68 -24 21 C-18.49562886 19.95980388 -13.06280233 19.6614405 -7.48242188 19.39453125 C-3.94288271 19.51434024 -3.94288271 19.51434024 -1 18 C-0.95304951 15.15949508 -0.95413266 12.33918827 -1 9.5 C-1.04586734 6.66081173 -1.04695049 3.84050492 -1 1 C-0.67 0.67 -0.34 0.34 0 0 Z " fill="#016B74" transform="translate(55,24)"/>
<path d="M0 0 C1.47968324 0.14049518 2.95874516 0.28754826 4.4375 0.4375 C5.67306641 0.55931641 5.67306641 0.55931641 6.93359375 0.68359375 C9 1 9 1 10 2 C14.57714901 2.43067266 18.88517642 2.16916145 23.3125 0.9375 C26.81521211 0.04697997 27.7698803 -0.01966251 31 1 C26.17079496 4.96684699 22.31083537 5.17018277 16.125 5.25 C14.33449219 5.28867188 14.33449219 5.28867188 12.5078125 5.328125 C8.67745165 4.96982844 6.35158066 3.81424594 3 2 C2.01 2 1.02 2 0 2 C0 1.34 0 0.68 0 0 Z " fill="#D8F8F8" transform="translate(59,87)"/>
<path d="M0 0 C1.32 0.66 2.64 1.32 4 2 C2.02 2.33 0.04 2.66 -2 3 C-2 3.66 -2 4.32 -2 5 C-6.62 5.33 -11.24 5.66 -16 6 C-16 6.66 -16 7.32 -16 8 C-17.32 8.33 -18.64 8.66 -20 9 C-20 7.68 -20 6.36 -20 5 C-15.94306113 3.14960231 -12.16315861 2.48683669 -7.75 1.9375 C-3.54978661 1.75820979 -3.54978661 1.75820979 0 0 Z " fill="#45B5B8" transform="translate(84,49)"/>
<path d="M0 0 C4 1 4 1 5 2 C5.27314815 7.73611111 5.27314815 7.73611111 5 10 C4.34 10.66 3.68 11.32 3 12 C2.01 12 1.02 12 0 12 C0 8.04 0 4.08 0 0 Z " fill="#3C777C" transform="translate(122,55)"/>
<path d="M0 0 C1.2065625 0.0309375 1.2065625 0.0309375 2.4375 0.0625 C2.7675 1.0525 3.0975 2.0425 3.4375 3.0625 C0.82798764 4.36725618 -1.08951285 4.17551572 -4.0078125 4.16015625 C-5.62236328 4.15532227 -5.62236328 4.15532227 -7.26953125 4.15039062 C-8.39746094 4.14201172 -9.52539062 4.13363281 -10.6875 4.125 C-11.82316406 4.12048828 -12.95882812 4.11597656 -14.12890625 4.11132812 C-16.94015638 4.09951615 -19.7513023 4.08304507 -22.5625 4.0625 C-20.5625 2.0625 -20.5625 2.0625 -18.6796875 1.90234375 C-17.93976563 1.93457031 -17.19984375 1.96679688 -16.4375 2 C-12.02290678 2.10000697 -7.92387473 1.76343522 -3.5625 1.0625 C-2.5625 0.0625 -2.5625 0.0625 0 0 Z " fill="#0E9398" transform="translate(82.5625,93.9375)"/>
<path d="M0 0 C0.99 0 1.98 0 3 0 C4.04005702 3.38018531 4.08004482 6.4780279 4 10 C3.34 10 2.68 10 2 10 C2 10.66 2 11.32 2 12 C-0.64 12 -3.28 12 -6 12 C-6 11.34 -6 10.68 -6 10 C-6.66 9.67 -7.32 9.34 -8 9 C-7.01 9 -6.02 9 -5 9 C-5 9.66 -5 10.32 -5 11 C-3.35 11 -1.7 11 0 11 C0 7.37 0 3.74 0 0 Z " fill="#578A8E" transform="translate(189,60)"/>
<path d="M0 0 C0.99 0.66 1.98 1.32 3 2 C3.99 2.33 4.98 2.66 6 3 C4.625 5.5 4.625 5.5 3 8 C2.34 8 1.68 8 1 8 C1 8.99 1 9.98 1 11 C0.01 10.67 -0.98 10.34 -2 10 C-1.85950482 8.52031676 -1.71245174 7.04125484 -1.5625 5.5625 C-1.48128906 4.73878906 -1.40007813 3.91507812 -1.31640625 3.06640625 C-1 1 -1 1 0 0 Z " fill="#E0FAFA" transform="translate(53,87)"/>
<path d="M0 0 C1.20366211 0.00966797 1.20366211 0.00966797 2.43164062 0.01953125 C3.26501953 0.03628906 4.09839844 0.05304687 4.95703125 0.0703125 C6.22450195 0.08384766 6.22450195 0.08384766 7.51757812 0.09765625 C9.60168368 0.12120547 11.68564342 0.15707603 13.76953125 0.1953125 C14.09953125 0.8553125 14.42953125 1.5153125 14.76953125 2.1953125 C8.82953125 2.1953125 2.88953125 2.1953125 -3.23046875 2.1953125 C-3.56046875 3.5153125 -3.89046875 4.8353125 -4.23046875 6.1953125 C-4.89046875 6.1953125 -5.55046875 6.1953125 -6.23046875 6.1953125 C-6.56046875 4.8753125 -6.89046875 3.5553125 -7.23046875 2.1953125 C-4.12961304 0.12807536 -3.50115194 -0.04966173 0 0 Z " fill="#C6D9DA" transform="translate(188.23046875,54.8046875)"/>
<path d="M0 0 C0.95651196 2.58258228 1.03620881 3.8650399 0.3125 6.5625 C-1.18690739 9.34711373 -2.24213233 10.46785129 -5 12 C-8.25 12.6875 -8.25 12.6875 -11 13 C-9.37660195 11.29115995 -7.70680947 9.62553283 -6 8 C-5.34 8 -4.68 8 -4 8 C-3.566875 6.8553125 -3.566875 6.8553125 -3.125 5.6875 C-2 3 -2 3 0 0 Z " fill="#347276" transform="translate(98,77)"/>
<path d="M0 0 C0 0.99 0 1.98 0 3 C-9.41002278 6.25968109 -9.41002278 6.25968109 -14 7 C-13 5 -13 5 -10 4 C-10.33 3.34 -10.66 2.68 -11 2 C-7.17010894 0.19769832 -4.21878192 -0.19622241 0 0 Z " fill="#66B2B0" transform="translate(85,66)"/>
<path d="M0 0 C0.66 0.99 1.32 1.98 2 3 C-2.98283716 4.14051606 -7.94468132 5.22225866 -13 6 C-12.01 5.67 -11.02 5.34 -10 5 C-9.30062468 3.68352881 -8.63270867 2.34977849 -8 1 C-5.21136993 -0.39431504 -3.07921132 -0.25660094 0 0 Z " fill="#CAF1F1" transform="translate(83,63)"/>
<path d="M0 0 C0.99 0 1.98 0 3 0 C3 1.32 3 2.64 3 4 C4.32 4.33 5.64 4.66 7 5 C5.68 5 4.36 5 3 5 C2.67 6.32 2.34 7.64 2 9 C1.01 9 0.02 9 -1 9 C-1.09765625 2.84765625 -1.09765625 2.84765625 -1 1 C-0.67 0.67 -0.34 0.34 0 0 Z " fill="#A3BCBE" transform="translate(153,59)"/>
<path d="M0 0 C0.33 0 0.66 0 1 0 C2.45295405 9.01531729 2.45295405 9.01531729 0.5625 13.125 C0.046875 13.74375 -0.46875 14.3625 -1 15 C-3.97 14.67 -6.94 14.34 -10 14 C-10 13.67 -10 13.34 -10 13 C-8.906875 12.855625 -7.81375 12.71125 -6.6875 12.5625 C-3.06877013 12.11711896 -3.06877013 12.11711896 0 11 C0 7.37 0 3.74 0 0 Z " fill="#4E8588" transform="translate(205,58)"/>
<path d="M0 0 C0.66 0 1.32 0 2 0 C2.33 0.99 2.66 1.98 3 3 C6.00847418 4.22520264 6.00847418 4.22520264 9 5 C9 5.66 9 6.32 9 7 C6.69 6.67 4.38 6.34 2 6 C1.67 7.32 1.34 8.64 1 10 C0 9 0 9 -0.09765625 6.93359375 C-0.08605469 6.10988281 -0.07445312 5.28617187 -0.0625 4.4375 C-0.05347656 3.61121094 -0.04445312 2.78492188 -0.03515625 1.93359375 C-0.02355469 1.29550781 -0.01195312 0.65742187 0 0 Z " fill="#CDDBDC" transform="translate(192,60)"/>
<path d="M0 0 C0.66 0.33 1.32 0.66 2 1 C1.09674384 2.32176485 0.17682097 3.63215066 -0.75 4.9375 C-1.26046875 5.66839844 -1.7709375 6.39929688 -2.296875 7.15234375 C-4.19177915 9.20805399 -5.27425729 9.62669176 -8 10 C-7.44449305 6.40094092 -6.25112752 5.00090201 -3.4375 2.75 C-2.79683594 2.22921875 -2.15617187 1.7084375 -1.49609375 1.171875 C-1.00238281 0.78515625 -0.50867187 0.3984375 0 0 Z " fill="#C3EDEF" transform="translate(62,77)"/>
<path d="M0 0 C1.35439668 2.70879335 1.06501451 5.00933268 1 8 C1.66 8.33 2.32 8.66 3 9 C3 8.01 3 7.02 3 6 C3.66 6.33 4.32 6.66 5 7 C4.34 8.32 3.68 9.64 3 11 C1.35 11 -0.3 11 -2 11 C-2.28571429 3.57142857 -2.28571429 3.57142857 0 0 Z " fill="#ABD5D6" transform="translate(51,89)"/>
<path d="M0 0 C1.32 0 2.64 0 4 0 C2.92334707 2.23612531 1.80426294 4.29752033 0.4375 6.375 C-1.1558667 9.28462614 -1.61916299 11.72480174 -2 15 C-2.33 15 -2.66 15 -3 15 C-3.35050464 9.158256 -3.16727335 5.1468192 0 0 Z " fill="#2E686D" transform="translate(51,84)"/>
<path d="M0 0 C0.66 0.33 1.32 0.66 2 1 C1.67 1.99 1.34 2.98 1 4 C-4.94 4.33 -10.88 4.66 -17 5 C-17 4.67 -17 4.34 -17 4 C-12.23692563 3.04738513 -7.8333472 2.91666643 -3 3 C-3 2.34 -3 1.68 -3 1 C-2.01 0.67 -1.02 0.34 0 0 Z " fill="#C3F3F4" transform="translate(85,51)"/>
<path d="M0 0 C0.99 0.33 1.98 0.66 3 1 C2.33333333 2.33333333 1.66666667 3.66666667 1 5 C0.5359375 6.0828125 0.5359375 6.0828125 0.0625 7.1875 C-1 9 -1 9 -4 10 C-4 8.68 -4 7.36 -4 6 C-3.34 6 -2.68 6 -2 6 C-1.7834375 5.071875 -1.7834375 5.071875 -1.5625 4.125 C-1 2 -1 2 0 0 Z " fill="#DDF5F4" transform="translate(95,76)"/>
<path d="M0 0 C1.86323318 0.25288812 3.71708432 0.57690153 5.5625 0.9375 C6.57441406 1.13214844 7.58632812 1.32679687 8.62890625 1.52734375 C9.80259766 1.76130859 9.80259766 1.76130859 11 2 C11 2.33 11 2.66 11 3 C10.06027344 2.98259766 10.06027344 2.98259766 9.1015625 2.96484375 C7.87566406 2.95130859 7.87566406 2.95130859 6.625 2.9375 C5.40683594 2.92009766 5.40683594 2.92009766 4.1640625 2.90234375 C1.95062858 2.85533666 1.95062858 2.85533666 0 4 C-1.54613014 3.91348369 -3.08909387 3.75997364 -4.625 3.5625 C-5.85089844 3.40974609 -5.85089844 3.40974609 -7.1015625 3.25390625 C-7.72804687 3.17011719 -8.35453125 3.08632812 -9 3 C-8.67 2.34 -8.34 1.68 -8 1 C-6.865625 1.020625 -5.73125 1.04125 -4.5625 1.0625 C-1.18424326 1.41577477 -1.18424326 1.41577477 0 0 Z " fill="#4A8084" transform="translate(158,69)"/>
<path d="M0 0 C0.33 0 0.66 0 1 0 C1.144375 1.11375 1.28875 2.2275 1.4375 3.375 C1.78372035 6.82142047 1.78372035 6.82142047 3 9 C-0.04983996 10.52491998 -2.6423369 10.23562548 -6 10 C-7.9375 8.5 -7.9375 8.5 -9 7 C-6.36 7.66 -3.72 8.32 -1 9 C-1.33 8.01 -1.66 7.02 -2 6 C-1.34 6 -0.68 6 0 6 C0 4.02 0 2.04 0 0 Z " fill="#C8D8D9" transform="translate(169,61)"/>
<path d="M0 0 C1.98 0.495 1.98 0.495 4 1 C3.67 2.98 3.34 4.96 3 7 C1.68 6.34 0.36 5.68 -1 5 C-0.67 3.35 -0.34 1.7 0 0 Z " fill="#729A9D" transform="translate(138,60)"/>
<path d="M0 0 C0.33 0.66 0.66 1.32 1 2 C0.01 3.485 0.01 3.485 -1 5 C-3.5 5.125 -3.5 5.125 -6 5 C-6.99 5.495 -6.99 5.495 -8 6 C-10.69565202 5.83219837 -13.32405554 5.38844355 -16 5 C-15.67 4.34 -15.34 3.68 -15 3 C-13.2365625 3.0928125 -13.2365625 3.0928125 -11.4375 3.1875 C-6.96039699 3.21144173 -3.9758112 1.9879056 0 0 Z " fill="#2CA3A4" transform="translate(86,90)"/>
<path d="M0 0 C1.32 0.66 2.64 1.32 4 2 C2.9275 2.433125 1.855 2.86625 0.75 3.3125 C-2.17750767 4.55447295 -4.48458941 6.04356954 -7 8 C-7.66 8 -8.32 8 -9 8 C-9 7.01 -9 6.02 -9 5 C-7.68 5 -6.36 5 -5 5 C-5 4.01 -5 3.02 -5 2 C-3.35 2 -1.7 2 0 2 C0 1.34 0 0.68 0 0 Z " fill="#CDF7F7" transform="translate(66,68)"/>
<path d="M0 0 C0.66 0.33 1.32 0.66 2 1 C2 2.98 2 4.96 2 7 C-1.4375 6.1875 -1.4375 6.1875 -5 5 C-5.33 4.01 -5.66 3.02 -6 2 C-3.61435923 2.57584432 -1.33317216 3.22227595 1 4 C0.67 2.68 0.34 1.36 0 0 Z " fill="#D0DCDD" transform="translate(203,57)"/>
<path d="M0 0 C-1.62249941 0.83819158 -3.24808497 1.6704116 -4.875 2.5 C-6.23238281 3.19609375 -6.23238281 3.19609375 -7.6171875 3.90625 C-10 5 -10 5 -12 5 C-11 2 -11 2 -7.6875 0.25 C-4.06346006 -0.97848812 -3.3741029 -1.10235591 0 0 Z " fill="#3F9D9B" transform="translate(76,70)"/>
<path d="M0 0 C0.99 0.33 1.98 0.66 3 1 C3 2.65 3 4.3 3 6 C1.68 6 0.36 6 -1 6 C-1.042721 4.33388095 -1.04063832 2.66617115 -1 1 C-0.67 0.67 -0.34 0.34 0 0 Z " fill="#629093" transform="translate(175,60)"/>
<path d="M0 0 C-0.33 0.66 -0.66 1.32 -1 2 C-3.06640625 2.4140625 -3.06640625 2.4140625 -5.5625 2.625 C-6.38878906 2.69976562 -7.21507813 2.77453125 -8.06640625 2.8515625 C-9.02353516 2.92503906 -9.02353516 2.92503906 -10 3 C-7.12787008 -0.11496306 -4.15361558 -2.07680779 0 0 Z " fill="#C0EFED" transform="translate(75,73)"/>
<path d="M0 0 C0.99 0 1.98 0 3 0 C3 0.99 3 1.98 3 3 C0.00519083 3.8723412 -2.63575911 4.10829766 -5.75 4.0625 C-6.54921875 4.05347656 -7.3484375 4.04445313 -8.171875 4.03515625 C-8.77515625 4.02355469 -9.3784375 4.01195313 -10 4 C-9.67 3.34 -9.34 2.68 -9 2 C-6.03 2 -3.06 2 0 2 C0 1.34 0 0.68 0 0 Z " fill="#54858A" transform="translate(145,68)"/>
<path d="M0 0 C0.33 0.66 0.66 1.32 1 2 C0.67 2.66 0.34 3.32 0 4 C-0.66 4.144375 -1.32 4.28875 -2 4.4375 C-2.66 4.623125 -3.32 4.80875 -4 5 C-4.33 5.99 -4.66 6.98 -5 8 C-5.66 8 -6.32 8 -7 8 C-5.98823563 4.59679258 -5.35156418 3.24274669 -2.375 1.1875 C-1.59125 0.795625 -0.8075 0.40375 0 0 Z " fill="#B2EEEF" transform="translate(65,57)"/>
<path d="M0 0 C0.6875 1.8125 0.6875 1.8125 1 4 C-0.3125 5.75 -0.3125 5.75 -2 7 C-2.66 7 -3.32 7 -4 7 C-3.43628586 3.73045798 -2.50037734 2.17424117 0 0 Z " fill="#C9E5E8" transform="translate(92,45)"/>
<path d="M0 0 C3.875 0.875 3.875 0.875 5 2 C5.04080783 3.99958364 5.04254356 6.00045254 5 8 C2.20127563 5.47211993 0.54226981 3.79588866 0 0 Z " fill="#256367" transform="translate(97,43)"/>
<path d="M0 0 C0.53625 0.37125 1.0725 0.7425 1.625 1.125 C-1.99473402 2.44126692 -4.47067131 3.125 -8.375 3.125 C-8.375 2.465 -8.375 1.805 -8.375 1.125 C-2.95961538 -1.09038462 -2.95961538 -1.09038462 0 0 Z " fill="#3FABAE" transform="translate(86.375,49.875)"/>
<path d="M0 0 C2.31 0.66 4.62 1.32 7 2 C4.66785852 3.20628008 2.50357861 4.1654738 0 5 C0 3.35 0 1.7 0 0 Z " fill="#216368" transform="translate(153,61)"/>
</svg>
